<?xml version="1.0" encoding="UTF-8"?>
<svg id="Layer_1" xmlns="http://www.w3.org/2000/svg" version="1.1" viewBox="0 0 512 512">
  <!-- Generator: Adobe Illustrator 29.7.1, SVG Export Plug-In . SVG Version: 2.1.1 Build 8)  -->
  <defs>
    <style>
      .st0 {
        fill: #7b61ff;
      }

      .st1 {
        fill: #ff4ec8;
      }

      .st2, .st3 {
        fill: #fff;
      }

      .st3 {
        isolation: isolate;
        opacity: .95;
      }
    </style>
  </defs>
  <path class="st1" d="M99.45,129.62c-19.69,2.77-33.41,20.97-30.64,40.66l22.84,162.48,44.27-208.27-36.46,5.12Z"/>
  <path class="st1" d="M340.18,433.26l-223.02-47.4c-7.96-1.69-14.74-5.89-19.69-11.6l8.63,61.42c2.77,19.69,20.97,33.41,40.66,30.64l205.98-28.95c18.06-2.54,31.09-18.07,30.98-35.82l-.85,3.99c-4.13,19.45-23.25,31.86-42.7,27.73Z"/>
  <path class="st0" d="M415.03,81.12l-223.02-47.4c-19.45-4.13-38.56,8.28-42.7,27.73l-13.4,63.04-44.27,208.27-2.21,10.4c-2.44,11.49.89,22.86,8.04,31.1,4.95,5.71,11.73,9.91,19.69,11.6l223.02,47.4c19.45,4.13,38.56-8.28,42.7-27.73l.85-3.99,59.03-277.72c4.13-19.45-8.28-38.56-27.73-42.7ZM321.97,153.36c-4.36,20.53-24.54,33.63-45.07,29.27s-33.63-24.54-29.27-45.07c4.36-20.53,24.54-33.63,45.07-29.27,20.53,4.36,33.63,24.54,29.27,45.07ZM326.25,205.38c9.18,1.95,15.05,10.98,13.09,20.16-1.95,9.18-10.98,15.05-20.16,13.09l-103.68-22.04c-9.18-1.95-15.05-10.98-13.09-20.16,1.95-9.18,10.98-15.05,20.16-13.09l103.68,22.04ZM313.14,300.74c-.92,4.32-5.17,7.08-9.49,6.16l-111.51-23.7c-4.32-.92-7.08-5.17-6.16-9.49.92-4.32,5.17-7.08,9.49-6.16l111.51,23.7c4.32.92,7.08,5.17,6.16,9.49ZM358.5,279.71c-.92,4.32-5.17,7.08-9.49,6.16l-150.63-32.02c-4.32-.92-7.08-5.17-6.16-9.49.92-4.32,5.17-7.08,9.49-6.16l150.63,32.02c4.32.92,7.08,5.17,6.16,9.49Z"/>
  <circle class="st2" cx="284.81" cy="145.46" r="38" transform="translate(65.19 377.92) rotate(-73.68)"/>
  <path class="st2" d="M202.4,196.44c-1.95,9.18,3.91,18.21,13.09,20.16l103.68,22.04c9.18,1.95,18.21-3.91,20.16-13.09,1.95-9.18-3.91-18.21-13.09-20.16l-103.68-22.04c-9.18-1.95-18.21,3.91-20.16,13.09Z"/>
  <path class="st0" d="M352.34,270.22l-150.63-32.02c-4.32-.92-8.57,1.84-9.49,6.16-.92,4.32,1.84,8.57,6.16,9.49l150.63,32.02c4.32.92,8.57-1.84,9.49-6.16.92-4.32-1.84-8.57-6.16-9.49Z"/>
  <path class="st3" d="M352.34,270.22l-150.63-32.02c-4.32-.92-8.57,1.84-9.49,6.16-.92,4.32,1.84,8.57,6.16,9.49l150.63,32.02c4.32.92,8.57-1.84,9.49-6.16.92-4.32-1.84-8.57-6.16-9.49Z"/>
  <path class="st0" d="M306.98,291.25l-111.51-23.7c-4.32-.92-8.57,1.84-9.49,6.16-.92,4.32,1.84,8.57,6.16,9.49l111.51,23.7c4.32.92,8.57-1.84,9.49-6.16.92-4.32-1.84-8.57-6.16-9.49Z"/>
  <path class="st3" d="M306.98,291.25l-111.51-23.7c-4.32-.92-8.57,1.84-9.49,6.16-.92,4.32,1.84,8.57,6.16,9.49l111.51,23.7c4.32.92,8.57-1.84,9.49-6.16.92-4.32-1.84-8.57-6.16-9.49Z"/>
</svg>